<?xml version="1.0" encoding="iso-8859-1"?>
<!DOCTYPE svg PUBLIC "-//W3C//DTD SVG 1.0//EN" "http://www.w3.org/TR/2001/REC-SVG-20010904/DTD/svg10.dtd">
<!-- Creator: CorelDRAW -->
<svg xmlns="http://www.w3.org/2000/svg" xmlns:odm="http://product.corel.com/CGS/11/cddns/" xml:space="preserve" width="90mm" height="90mm" style="shape-rendering:geometricPrecision; text-rendering:geometricPrecision; image-rendering:optimizeQuality; fill-rule:evenodd"
     viewBox="0 0 90000 90000">
 <defs>
  <style type="text/css">
   <![CDATA[
    .str3 {stroke:#1F1A17;stroke-width:76}
    .str4 {stroke:#1F1A17;stroke-width:176}
    .str1 {stroke:#1F1A17;stroke-width:176}
    .str5 {stroke:#1F1A17;stroke-width:353}
    .str0 {stroke:#1F1A17;stroke-width:176;stroke-dasharray:1760 880}
    .str2 {stroke:#1F1A17;stroke-width:176;stroke-dasharray:1764 882}
    .fil1 {fill:none}
    .fil0 {fill:#1F1A17}
   ]]>
  </style>
 </defs>
 <g id="Ebene 1">
  <g>
   <path class="fil0" d="M14929 4690l-929 -1690 -930 1690 1859 0 -929 -1690z"/>
   <path class="fil0" d="M14000 83088l88 -88 0 -78457 -176 0 0 78457 88 88 -88 -88 0 88 88 0z"/>
   <path class="fil0" d="M82457 82912l-68457 0 0 176 68457 0z"/>
   <path class="fil0" d="M82310 82070l1690 930 -1690 929 0 -1859 1690 930z"/>
  </g>
  <path class="fil1 str0" d="M16334 82889l7799 -38851"/>
  <path class="fil1 str1" d="M45047 22979l-33047 21"/>
  <path class="fil0" d="M6959 23070l0 -2020 895 0c181,0 317,18 411,54 94,37 168,101 225,192 56,92 84,194 84,305 0,144 -46,264 -140,362 -92,99 -236,161 -430,188 72,34 125,67 162,101 78,71 152,161 222,268l351 550 -336 0 -267 -420c-78,-121 -143,-214 -194,-278 -50,-65 -95,-110 -135,-135 -40,-26 -80,-44 -122,-55 -30,-6 -80,-9 -149,-9l-310 0 0 897 -267 0zm267 -1128l575 0c122,0 218,-13 286,-38 69,-26 122,-66 157,-122 36,-55 54,-116 54,-181 0,-95 -34,-174 -104,-236 -69,-61 -179,-92 -329,-92l-639 0 0 669z"/>
  <path class="fil0" d="M9016 23509l0 -1098 166 0 0 154c35,-54 81,-97 138,-130 57,-32 122,-49 195,-49 81,0 148,17 200,51 52,34 89,81 110,141 87,-128 200,-192 339,-192 109,0 193,30 251,91 59,60 88,153 88,278l0 754 -185 0 0 -692c0,-74 -6,-128 -18,-161 -12,-32 -34,-59 -66,-79 -31,-20 -69,-30 -111,-30 -78,0 -141,26 -193,77 -50,52 -76,134 -76,247l0 638 -186 0 0 -713c0,-83 -15,-145 -46,-187 -30,-41 -79,-62 -148,-62 -53,0 -101,14 -145,42 -45,27 -77,68 -97,120 -20,54 -30,130 -30,230l0 570 -186 0z"/>
  <path class="fil1 str1" d="M24134 44000l-12134 0"/>
  <path class="fil0" d="M3222 44000l0 -2020 896 0c180,0 317,18 410,54 94,36 169,100 225,192 56,92 84,194 84,305 0,143 -46,264 -139,362 -93,98 -236,161 -430,188 71,34 124,67 161,100 78,72 152,162 222,269l352 550 -337 0 -267 -421c-78,-121 -143,-214 -193,-278 -51,-64 -96,-109 -136,-135 -40,-26 -80,-43 -122,-54 -30,-6 -80,-9 -149,-9l-310 0 0 897 -267 0zm267 -1129l575 0c122,0 218,-12 287,-38 69,-25 121,-66 157,-121 35,-56 53,-116 53,-181 0,-96 -34,-174 -104,-236 -69,-61 -178,-92 -328,-92l-640 0 0 668z"/>
  <path class="fil0" d="M5178 44420l0 -1518 169 0 0 143c40,-56 85,-98 136,-126 50,-28 111,-42 182,-42 94,0 177,25 249,73 71,48 125,116 162,204 36,88 55,184 55,289 0,112 -20,213 -61,303 -40,90 -99,159 -176,207 -76,48 -157,72 -242,72 -62,0 -117,-14 -167,-40 -49,-26 -89,-59 -121,-99l0 534 -186 0zm168 -963c0,141 29,246 86,314 57,67 127,101 208,101 82,0 153,-35 212,-105 59,-70 89,-178 89,-325 0,-140 -29,-245 -87,-315 -57,-69 -126,-104 -206,-104 -79,0 -149,37 -210,111 -61,74 -92,182 -92,323z"/>
  <path class="fil0" d="M6303 43253c0,-180 19,-324 56,-433 36,-109 91,-194 164,-253 73,-59 164,-89 274,-89 82,0 153,17 214,50 62,32 112,79 152,141 40,62 72,137 94,226 23,88 34,207 34,358 0,177 -18,321 -54,430 -37,109 -92,194 -164,253 -73,60 -165,90 -276,90 -146,0 -261,-53 -344,-157 -100,-126 -150,-332 -150,-616zm192 0c0,248 29,414 87,496 58,83 130,124 215,124 86,0 158,-42 216,-124 58,-83 87,-248 87,-496 0,-250 -29,-416 -87,-497 -58,-83 -131,-124 -218,-124 -85,0 -153,37 -205,109 -63,92 -95,263 -95,512z"/>
  <path class="fil0" d="M7581 44000l0 -212 212 0 0 212c0,78 -14,141 -42,189 -27,47 -71,84 -131,111l-52 -80c39,-17 68,-43 87,-76 19,-33 29,-81 31,-144l-105 0z"/>
  <path class="fil0" d="M9047 43821l0 179 -1002 0c-1,-45 6,-88 21,-129 26,-69 67,-136 123,-202 56,-66 137,-143 243,-229 165,-135 277,-242 334,-321 58,-79 87,-154 87,-224 0,-74 -26,-136 -79,-187 -53,-50 -122,-76 -206,-76 -90,0 -161,27 -215,81 -54,54 -81,128 -82,223l-191 -19c13,-143 62,-252 148,-327 85,-74 200,-112 344,-112 145,0 260,41 345,121 85,81 127,181 127,300 0,61 -12,120 -37,179 -25,59 -66,120 -123,185 -58,65 -154,154 -287,267 -112,93 -183,157 -215,190 -32,34 -58,67 -79,101l744 0z"/>
  <path class="fil1 str1" d="M22668 48000l-10658 0"/>
  <path class="fil0" d="M2222 48000l0 -2020 896 0c180,0 317,18 410,55 94,36 169,100 225,192 56,92 84,193 84,304 0,144 -46,264 -139,363 -93,98 -236,160 -430,187 71,34 124,68 161,101 78,71 152,161 222,268l352 550 -337 0 -267 -420c-78,-121 -143,-214 -193,-278 -51,-65 -96,-110 -136,-135 -40,-26 -80,-44 -122,-54 -30,-6 -80,-10 -149,-10l-310 0 0 897 -267 0zm267 -1128l575 0c122,0 218,-13 287,-38 69,-26 121,-66 157,-122 35,-55 53,-115 53,-181 0,-95 -34,-174 -104,-235 -69,-62 -178,-92 -328,-92l-640 0 0 668z"/>
  <path class="fil0" d="M7295 46813l-1334 0 0 -232 1334 0 0 232zm0 613l-1334 0 0 -232 1334 0 0 232z"/>
  <path class="fil0" d="M8458 48000l0 -2020 895 0c181,0 317,18 411,55 94,36 168,100 225,192 56,92 84,193 84,304 0,144 -46,264 -140,363 -92,98 -236,160 -430,187 72,34 125,68 162,101 78,71 152,161 222,268l351 550 -336 0 -267 -420c-78,-121 -143,-214 -194,-278 -50,-65 -95,-110 -135,-135 -40,-26 -80,-44 -122,-54 -30,-6 -80,-10 -149,-10l-310 0 0 897 -267 0zm267 -1128l575 0c122,0 218,-13 286,-38 69,-26 122,-66 157,-122 36,-55 54,-115 54,-181 0,-95 -34,-174 -104,-235 -69,-62 -179,-92 -329,-92l-639 0 0 668z"/>
  <path class="fil0" d="M4178 48421l0 -1518 169 0 0 142c40,-55 85,-97 136,-125 50,-28 111,-42 182,-42 94,0 177,24 249,72 71,48 125,117 162,204 36,88 55,185 55,289 0,112 -20,214 -61,304 -40,90 -99,158 -176,206 -76,48 -157,72 -242,72 -62,0 -117,-13 -167,-39 -49,-26 -89,-59 -121,-99l0 534 -186 0zm168 -963c0,141 29,245 86,313 57,67 127,101 208,101 82,0 153,-35 212,-105 59,-70 89,-178 89,-325 0,-140 -29,-244 -87,-314 -57,-70 -126,-105 -206,-105 -79,0 -149,38 -210,112 -61,74 -92,182 -92,323z"/>
  <path class="fil0" d="M11165 47647l192 23c-30,113 -86,200 -168,262 -82,62 -187,93 -315,93 -160,0 -287,-49 -381,-148 -95,-99 -141,-238 -141,-416 0,-185 47,-328 142,-430 95,-102 218,-153 370,-153 147,0 267,50 360,150 93,100 139,240 139,421 0,12 0,28 -1,50l-818 0c7,121 41,213 102,277 62,64 138,96 229,96 69,0 127,-18 175,-54 48,-35 87,-92 115,-171zm-611 -301l613 0c-8,-92 -32,-162 -70,-207 -60,-72 -137,-108 -231,-108 -85,0 -157,28 -215,86 -58,57 -91,133 -97,229z"/>
  <path class="fil1 str1" d="M16324 84945l0 -2001"/>
  <path class="fil0" d="M15309 87004c0,-239 24,-432 74,-577 49,-146 122,-258 219,-337 97,-79 219,-119 365,-119 109,0 204,22 286,66 82,43 149,106 203,189 53,82 95,182 125,300 30,118 45,277 45,478 0,237 -24,428 -73,574 -48,145 -121,258 -218,337 -97,80 -219,119 -368,119 -194,0 -347,-69 -458,-209 -133,-168 -200,-442 -200,-821zm255 0c0,331 39,552 116,662 78,110 174,165 287,165 115,0 210,-56 288,-166 77,-110 116,-331 116,-661 0,-333 -39,-554 -116,-663 -78,-110 -174,-164 -290,-164 -114,0 -205,48 -273,145 -85,122 -128,350 -128,682z"/>
  <path class="fil0" d="M17012 88000l0 -283 283 0 0 283c0,104 -19,188 -55,252 -37,63 -96,112 -175,148l-69 -107c52,-23 90,-56 115,-101 25,-44 39,-108 42,-192l-141 0z"/>
  <path class="fil0" d="M18966 87761l0 239 -1335 0c-2,-60 8,-117 29,-172 34,-91 88,-181 163,-269 75,-88 183,-190 325,-306 219,-180 368,-323 445,-428 77,-105 116,-205 116,-298 0,-99 -36,-181 -106,-249 -70,-67 -162,-101 -275,-101 -119,0 -215,36 -286,108 -72,71 -108,170 -109,297l-255 -26c17,-191 83,-335 197,-435 114,-100 267,-150 459,-150 194,0 347,54 460,162 113,107 170,240 170,399 0,81 -17,161 -50,239 -33,78 -88,160 -165,246 -77,87 -204,205 -382,356 -149,125 -244,210 -287,254 -42,45 -77,89 -105,134l991 0z"/>
  <path class="fil0" d="M19279 86465c0,-144 36,-267 109,-368 72,-101 178,-152 315,-152 127,0 232,46 315,136 83,91 125,224 125,399 0,171 -42,303 -126,395 -84,92 -187,138 -311,138 -122,0 -224,-45 -305,-136 -81,-91 -122,-228 -122,-412zm432 -349c-62,0 -113,27 -154,80 -41,53 -61,151 -61,294 0,129 20,220 61,273 42,53 93,79 154,79 62,0 113,-26 154,-80 41,-53 62,-150 62,-292 0,-130 -21,-222 -62,-274 -42,-54 -93,-80 -154,-80zm1 1958l1105 -2129 201 0 -1101 2129 -205 0zm873 -548c0,-145 37,-268 109,-369 73,-100 178,-150 317,-150 127,0 232,45 315,135 83,91 125,223 125,399 0,171 -42,302 -126,395 -84,92 -188,138 -312,138 -123,0 -224,-45 -306,-137 -81,-91 -122,-228 -122,-411zm433 -349c-62,0 -114,27 -155,80 -41,53 -61,151 -61,294 0,128 20,219 62,273 41,53 92,80 153,80 63,0 115,-27 156,-80 41,-54 62,-151 62,-293 0,-130 -21,-222 -63,-275 -41,-52 -92,-79 -154,-79z"/>
  <path class="fil0" d="M77143 85702l-178 143c-113,-85 -219,-128 -317,-128 -81,0 -140,22 -178,65 -37,43 -55,90 -55,139 0,65 27,118 83,161 55,42 136,64 242,64 14,0 37,-1 69,-1l0 207c-30,0 -52,-1 -66,-1 -131,0 -223,25 -274,76 -51,51 -76,107 -76,171 0,65 26,120 77,165 51,44 112,66 183,66 130,0 251,-60 364,-180l178 150c-147,156 -330,234 -549,234 -171,0 -300,-43 -384,-131 -85,-87 -127,-188 -127,-304 0,-167 81,-285 243,-354 -135,-77 -203,-182 -203,-316 0,-109 40,-207 120,-294 80,-87 203,-131 368,-131 189,0 349,67 480,199z"/>
  <path class="fil0" d="M78234 87561l0 -2581 547 0 0 205 -299 0 0 2171 299 0 0 205 -547 0z"/>
  <path class="fil0" d="M78991 85465c0,-144 36,-267 108,-368 73,-101 178,-151 316,-151 127,0 232,45 315,135 83,91 125,224 125,399 0,171 -43,303 -127,395 -84,92 -187,138 -310,138 -123,0 -224,-45 -306,-136 -81,-91 -121,-228 -121,-412zm431 -349c-62,0 -113,27 -154,80 -41,53 -61,151 -61,294 0,129 21,220 62,274 41,52 92,79 153,79 62,0 114,-27 155,-80 41,-54 61,-151 61,-292 0,-131 -20,-222 -62,-275 -41,-53 -93,-80 -154,-80zm1 1958l1105 -2128 202 0 -1102 2128 -205 0zm874 -548c0,-145 36,-268 108,-369 73,-100 179,-150 317,-150 127,0 232,45 316,135 82,91 124,224 124,399 0,171 -42,303 -126,395 -84,92 -188,138 -312,138 -122,0 -224,-45 -305,-136 -82,-92 -122,-229 -122,-412zm433 -349c-63,0 -115,27 -156,80 -41,54 -61,151 -61,294 0,128 21,220 62,273 42,53 92,80 153,80 64,0 116,-27 156,-80 41,-53 62,-151 62,-292 0,-131 -21,-222 -62,-275 -42,-53 -93,-80 -154,-80z"/>
  <path class="fil0" d="M81937 87561l-548 0 0 -205 300 0 0 -2171 -300 0 0 -205 548 0 0 2581z"/>
  <path class="fil0" d="M10232 15691l201 1 -2 398c114,-121 292,-181 533,-180 262,1 454,69 577,203 122,135 183,298 182,489 -1,198 -66,361 -196,489 -129,128 -320,191 -572,190 -260,-2 -452,-69 -577,-204 -124,-134 -185,-296 -184,-484 0,-69 12,-147 34,-234l4 -668zm167 907c-1,121 46,222 139,304 93,82 233,123 419,124 186,1 326,-38 420,-117 94,-79 142,-182 143,-308 0,-133 -48,-240 -146,-319 -97,-79 -235,-119 -413,-120 -163,-1 -297,34 -402,106 -106,71 -159,182 -160,330z"/>
  <path class="fil0" d="M12253 14664l-2581 -14 3 -547 206 1 -2 299 2170 12 1 -299 206 1 -3 547z"/>
  <path class="fil0" d="M11694 13854l-2020 -12 1 -274 1592 -1052 -1586 -8 2 -257 2019 11 -1 275 -1593 1051 1587 9 -1 257z"/>
  <path class="fil0" d="M11731 12030l-2085 -596 1 -199 2085 596 -1 199z"/>
  <path class="fil0" d="M11699 11061l-1463 -9 1 -222 206 2c-72,-47 -129,-108 -173,-185 -43,-76 -64,-163 -63,-260 0,-109 23,-198 69,-267 45,-69 108,-117 189,-145 -170,-117 -255,-268 -253,-454 0,-145 41,-256 122,-334 81,-77 204,-116 372,-115l1004 5 -1 247 -922 -5c-99,0 -170,7 -214,23 -44,16 -79,45 -106,87 -27,42 -40,92 -41,149 -1,103 33,188 102,256 67,69 177,104 327,104l851 5 -2 248 -950 -5c-111,-1 -194,19 -249,59 -55,40 -83,106 -84,198 0,70 18,134 54,194 37,59 90,102 161,129 70,28 172,42 305,42l760 4 -2 249z"/>
  <path class="fil0" d="M11704 8710l-1463 -9 1 -222 205 2c-71,-47 -128,-108 -172,-184 -43,-77 -64,-164 -64,-261 1,-109 24,-198 70,-267 45,-69 108,-117 189,-145 -170,-117 -255,-268 -254,-454 1,-144 42,-256 122,-334 81,-77 205,-116 373,-115l1004 6 -2 247 -921 -6c-99,0 -171,8 -215,23 -43,16 -79,45 -106,87 -26,42 -40,92 -40,149 -1,103 33,188 101,256 68,69 177,104 328,105l850 4 -1 248 -951 -5c-110,-1 -193,19 -248,59 -55,40 -84,106 -84,198 0,70 18,134 54,194 36,60 90,102 160,129 71,28 173,42 306,42l759 4 -1 249z"/>
  <path class="fil0" d="M10698 6504c-52,-5 -104,-27 -157,-65 -78,-58 -165,-154 -260,-287 -96,-133 -157,-211 -184,-236 -38,-35 -76,-52 -116,-52 -44,0 -81,16 -109,47 -29,32 -43,80 -44,142 0,61 10,106 32,136 22,30 63,55 124,75l-23 207c-102,-27 -177,-73 -225,-139 -47,-66 -71,-161 -70,-284 1,-138 28,-240 83,-304 54,-65 120,-97 199,-97 77,1 150,28 218,83 51,41 130,136 234,284 56,76 100,131 133,163l3 -532 167 1 -5 858z"/>
  <path class="fil0" d="M12274 5007l-3 547 -206 -1 2 -299 -2170 -12 -1 299 -206 -1 3 -547 2581 14z"/>
  <path class="fil1 str2" d="M64592 83000l8408 -42038"/>
  <path class="fil1 str3" d="M45546 22009l4000 -9009"/>
  <path class="fil0" d="M50223 12000l0 -2020 1461 0 0 238 -1193 0 0 619 1117 0 0 237 -1117 0 0 688 1240 0 0 238 -1508 0z"/>
  <path class="fil0" d="M52070 10265l0 -285 248 0 0 285 -248 0zm0 1735l0 -1463 248 0 0 1463 -248 0z"/>
  <path class="fil0" d="M52696 12000l0 -1463 223 0 0 208c107,-161 263,-242 465,-242 89,0 170,16 244,48 74,32 129,73 166,125 37,51 62,112 77,183 9,46 14,126 14,241l0 900 -249 0 0 -890c0,-101 -9,-177 -28,-227 -20,-50 -54,-90 -103,-120 -49,-30 -107,-45 -173,-45 -106,0 -196,34 -274,101 -76,67 -114,194 -114,382l0 799 -248 0z"/>
  <path class="fil0" d="M54166 11563l245 -38c14,98 52,173 115,226 63,52 151,78 264,78 114,0 199,-23 254,-69 55,-47 83,-101 83,-164 0,-56 -25,-100 -74,-132 -34,-22 -118,-50 -253,-84 -182,-46 -308,-86 -379,-119 -70,-34 -123,-80 -159,-140 -37,-59 -55,-124 -55,-196 0,-65 15,-125 45,-181 30,-56 71,-102 122,-139 39,-28 91,-52 158,-72 66,-20 138,-30 214,-30 115,0 215,17 302,50 87,33 151,78 193,134 41,57 69,132 85,227l-242 33c-12,-75 -44,-134 -96,-176 -53,-42 -128,-64 -224,-64 -114,0 -195,19 -244,57 -49,38 -73,82 -73,132 0,33 10,61 30,87 21,27 52,49 95,66 25,9 98,31 220,63 175,48 297,86 367,116 69,29 124,73 163,130 40,57 59,127 59,212 0,83 -24,161 -72,234 -48,73 -118,129 -209,169 -91,40 -194,60 -308,60 -191,0 -336,-40 -435,-119 -100,-79 -164,-196 -191,-351z"/>
  <path class="fil0" d="M56631 11464l244 32c-26,168 -95,299 -205,394 -109,95 -244,143 -404,143 -200,0 -361,-65 -483,-196 -122,-131 -183,-319 -183,-563 0,-158 27,-297 79,-415 52,-119 132,-207 239,-267 107,-59 224,-89 349,-89 159,0 289,41 390,121 101,81 166,194 195,343l-241 37c-23,-98 -64,-172 -122,-222 -59,-50 -129,-75 -212,-75 -125,0 -227,45 -305,135 -78,89 -117,231 -117,425 0,196 38,339 114,429 75,89 173,133 294,133 98,0 179,-30 244,-90 65,-59 107,-151 124,-275z"/>
  <path class="fil0" d="M57088 12000l0 -2020 247 0 0 725c116,-134 262,-202 439,-202 108,0 202,22 282,65 80,42 137,101 172,177 34,75 51,184 51,327l0 928 -248 0 0 -928c0,-123 -27,-214 -80,-270 -54,-56 -130,-85 -228,-85 -74,0 -143,19 -208,57 -65,38 -111,90 -138,155 -28,65 -42,156 -42,270l0 801 -247 0z"/>
  <path class="fil0" d="M58657 12000l0 -1463 223 0 0 208c108,-161 263,-242 466,-242 88,0 169,16 243,48 74,32 129,73 166,125 37,51 63,112 78,183 8,46 13,126 13,241l0 900 -248 0 0 -890c0,-101 -10,-177 -29,-227 -19,-50 -53,-90 -102,-120 -50,-30 -107,-45 -173,-45 -106,0 -197,34 -274,101 -77,67 -115,194 -115,382l0 799 -248 0z"/>
  <path class="fil0" d="M61186 12000l0 -215c-115,166 -269,248 -465,248 -86,0 -167,-16 -242,-49 -74,-33 -130,-75 -166,-125 -37,-50 -62,-112 -77,-184 -10,-49 -15,-126 -15,-232l0 -906 248 0 0 811c0,130 5,217 15,262 16,65 49,116 99,154 51,37 114,55 188,55 74,0 144,-18 209,-56 66,-39 112,-91 139,-156 27,-66 40,-162 40,-286l0 -784 248 0 0 1463 -221 0zm-758 -1750l0 -282 259 0 0 282 -259 0zm514 0l0 -282 259 0 0 282 -259 0z"/>
  <path class="fil0" d="M61793 12000l0 -1463 223 0 0 221c57,-103 110,-172 158,-205 48,-33 102,-50 159,-50 84,0 169,27 255,80l-85 231c-60,-36 -121,-54 -182,-54 -54,0 -103,16 -146,49 -43,33 -74,78 -92,136 -28,88 -42,184 -42,289l0 766 -248 0z"/>
  <path class="fil0" d="M63695 12000l0 -215c-114,166 -269,248 -465,248 -86,0 -167,-16 -241,-49 -75,-33 -131,-75 -167,-125 -36,-50 -62,-112 -76,-184 -10,-49 -16,-126 -16,-232l0 -906 248 0 0 811c0,130 6,217 15,262 16,65 49,116 100,154 50,37 113,55 187,55 75,0 144,-18 210,-56 65,-39 111,-91 138,-156 27,-66 41,-162 41,-286l0 -784 248 0 0 1463 -222 0z"/>
  <path class="fil0" d="M64306 12000l0 -1463 223 0 0 208c107,-161 263,-242 465,-242 89,0 170,16 244,48 74,32 129,73 166,125 37,51 62,112 77,183 9,46 14,126 14,241l0 900 -249 0 0 -890c0,-101 -9,-177 -28,-227 -20,-50 -54,-90 -103,-120 -49,-30 -107,-45 -173,-45 -106,0 -196,34 -274,101 -76,67 -114,194 -114,382l0 799 -248 0z"/>
  <path class="fil0" d="M65830 12121l241 36c10,74 38,129 84,163 61,46 146,69 252,69 115,0 203,-23 266,-69 63,-46 104,-111 127,-193 13,-51 18,-157 17,-318 -108,127 -243,191 -405,191 -201,0 -357,-72 -467,-218 -110,-145 -165,-319 -165,-522 0,-140 25,-268 76,-386 50,-119 124,-210 220,-274 96,-64 209,-97 338,-97 173,0 315,70 427,210l0 -176 229 0 0 1265c0,227 -23,389 -70,484 -46,95 -120,170 -220,225 -101,55 -225,83 -372,83 -174,0 -315,-39 -423,-118 -107,-78 -159,-197 -155,-355zm205 -879c0,192 38,332 115,420 76,89 171,132 286,132 114,0 209,-43 286,-131 78,-88 116,-225 116,-413 0,-179 -39,-314 -119,-405 -79,-90 -175,-136 -287,-136 -110,0 -204,45 -282,134 -77,90 -115,223 -115,399z"/>
  <path class="fil0" d="M67346 11563l245 -38c13,98 52,173 115,226 63,52 150,78 264,78 114,0 198,-23 253,-69 55,-47 83,-101 83,-164 0,-56 -24,-100 -73,-132 -34,-22 -119,-50 -254,-84 -181,-46 -308,-86 -378,-119 -70,-34 -124,-80 -160,-140 -36,-59 -54,-124 -54,-196 0,-65 15,-125 45,-181 29,-56 70,-102 122,-139 38,-28 91,-52 157,-72 67,-20 138,-30 215,-30 114,0 215,17 302,50 87,33 151,78 192,134 42,57 70,132 86,227l-243 33c-11,-75 -43,-134 -96,-176 -52,-42 -127,-64 -223,-64 -114,0 -196,19 -244,57 -49,38 -74,82 -74,132 0,33 11,61 31,87 20,27 52,49 95,66 25,9 98,31 219,63 176,48 298,86 367,116 70,29 124,73 164,130 39,57 59,127 59,212 0,83 -24,161 -72,234 -49,73 -118,129 -209,169 -91,40 -194,60 -309,60 -190,0 -335,-40 -435,-119 -100,-79 -163,-196 -190,-351z"/>
  <path class="fil0" d="M69085 12000l-230 0 0 -2020 247 0 0 720c105,-131 239,-197 401,-197 91,0 176,19 256,55 81,36 146,87 199,153 51,66 92,145 121,238 30,92 45,192 45,297 0,251 -62,445 -187,582 -123,137 -272,205 -446,205 -173,0 -308,-72 -406,-216l0 183zm-3 -743c0,176 24,302 71,380 78,128 184,192 317,192 109,0 203,-47 282,-141 79,-94 118,-235 118,-421 0,-191 -38,-332 -114,-423 -75,-91 -167,-137 -274,-137 -109,0 -203,48 -282,142 -79,94 -118,230 -118,408z"/>
  <path class="fil0" d="M71427 11529l256 31c-40,150 -115,266 -224,349 -110,83 -249,124 -419,124 -214,0 -384,-66 -509,-198 -126,-131 -188,-316 -188,-554 0,-247 63,-438 190,-574 127,-135 291,-204 493,-204 196,0 356,67 480,200 124,133 186,321 186,562 0,15 -1,37 -2,67l-1091 0c9,161 55,284 137,369 81,86 183,128 305,128 91,0 169,-24 233,-72 65,-47 115,-123 153,-228zm-814 -401l817 0c-11,-123 -42,-216 -94,-277 -79,-96 -181,-144 -307,-144 -114,0 -210,39 -287,115 -78,76 -121,178 -129,306z"/>
  <path class="fil0" d="M71950 12121l241 36c10,74 38,129 84,163 61,46 145,69 252,69 115,0 203,-23 266,-69 63,-46 104,-111 126,-193 14,-51 19,-157 18,-318 -108,127 -243,191 -405,191 -201,0 -357,-72 -467,-218 -110,-145 -165,-319 -165,-522 0,-140 25,-268 75,-386 51,-119 125,-210 221,-274 96,-64 208,-97 338,-97 172,0 315,70 427,210l0 -176 229 0 0 1265c0,227 -24,389 -70,484 -46,95 -120,170 -220,225 -101,55 -225,83 -372,83 -174,0 -315,-39 -423,-118 -107,-78 -159,-197 -155,-355zm205 -879c0,192 38,332 114,420 77,89 172,132 287,132 114,0 209,-43 286,-131 77,-88 116,-225 116,-413 0,-179 -39,-314 -119,-405 -79,-90 -175,-136 -287,-136 -110,0 -204,45 -282,134 -77,90 -115,223 -115,399z"/>
  <path class="fil0" d="M73566 10265l0 -285 248 0 0 285 -248 0zm0 1735l0 -1463 248 0 0 1463 -248 0z"/>
  <path class="fil0" d="M74192 12000l0 -1463 223 0 0 208c107,-161 263,-242 465,-242 89,0 170,16 244,48 74,32 129,73 166,125 37,51 62,112 77,183 9,46 14,126 14,241l0 900 -248 0 0 -890c0,-101 -10,-177 -29,-227 -19,-50 -54,-90 -103,-120 -49,-30 -106,-45 -173,-45 -106,0 -196,34 -274,101 -76,67 -114,194 -114,382l0 799 -248 0z"/>
  <path class="fil0" d="M75761 12000l0 -1463 223 0 0 208c108,-161 263,-242 466,-242 88,0 169,16 243,48 75,32 130,73 166,125 37,51 63,112 78,183 9,46 14,126 14,241l0 900 -249 0 0 -890c0,-101 -9,-177 -29,-227 -19,-50 -53,-90 -102,-120 -49,-30 -107,-45 -173,-45 -106,0 -197,34 -274,101 -77,67 -115,194 -115,382l0 799 -248 0z"/>
  <path class="fil0" d="M74926 41000l0 -2020 758 0c154,0 278,21 371,61 94,41 167,104 219,189 53,85 80,174 80,267 0,86 -24,167 -71,243 -46,77 -117,138 -212,185 123,36 216,97 282,183 66,87 99,189 99,306 0,95 -20,183 -60,264 -40,82 -90,144 -149,188 -58,45 -132,78 -221,100 -88,23 -197,34 -326,34l-770 0zm268 -1171l437 0c118,0 203,-8 254,-24 68,-20 119,-53 154,-100 34,-47 52,-106 52,-177 0,-67 -16,-126 -48,-177 -33,-51 -79,-86 -138,-104 -60,-19 -163,-29 -308,-29l-403 0 0 611zm0 933l502 0c87,0 148,-4 182,-10 62,-11 113,-29 155,-55 41,-26 75,-63 102,-112 26,-50 40,-106 40,-171 0,-75 -20,-140 -58,-196 -39,-56 -92,-95 -161,-117 -68,-22 -167,-34 -295,-34l-467 0 0 695z"/>
  <path class="fil0" d="M76785 41000l0 -1463 223 0 0 221c57,-103 110,-172 158,-205 48,-33 101,-50 159,-50 84,0 169,27 255,80l-85 231c-61,-36 -121,-54 -182,-54 -55,0 -103,16 -146,49 -44,33 -74,78 -92,136 -28,88 -42,184 -42,289l0 766 -248 0z"/>
  <path class="fil0" d="M78687 41000l0 -215c-114,166 -269,248 -465,248 -86,0 -167,-16 -241,-49 -75,-33 -131,-75 -167,-125 -37,-50 -62,-112 -77,-184 -10,-49 -15,-126 -15,-232l0 -906 248 0 0 811c0,130 5,217 15,262 16,65 49,116 99,154 51,37 114,55 188,55 74,0 144,-18 209,-56 66,-39 112,-91 139,-156 27,-66 41,-162 41,-286l0 -784 248 0 0 1463 -222 0z"/>
  <path class="fil0" d="M80252 40464l244 32c-26,168 -95,299 -205,394 -109,95 -244,143 -404,143 -200,0 -361,-65 -483,-196 -122,-131 -183,-319 -183,-563 0,-158 27,-297 79,-415 53,-119 132,-207 239,-267 107,-59 224,-89 349,-89 159,0 290,41 390,121 101,81 166,194 195,343l-241 37c-23,-98 -64,-172 -122,-222 -58,-50 -129,-75 -212,-75 -125,0 -227,45 -305,135 -78,89 -117,231 -117,425 0,196 38,339 114,429 75,89 173,133 295,133 97,0 178,-30 243,-90 66,-59 107,-151 124,-275z"/>
  <path class="fil0" d="M80709 41000l0 -2020 247 0 0 725c116,-134 262,-202 439,-202 108,0 202,22 282,65 80,42 137,101 172,177 34,75 52,184 52,327l0 928 -249 0 0 -928c0,-123 -27,-214 -80,-270 -54,-56 -130,-85 -228,-85 -74,0 -143,19 -208,57 -65,38 -111,90 -138,155 -28,65 -42,156 -42,270l0 801 -247 0z"/>
  <path class="fil1 str1" d="M64598 83000l0 2000"/>
  <path class="fil0" d="M63702 88000l776 -2020 288 0 827 2020 -305 0 -236 -612 -844 0 -222 612 -284 0zm583 -830l685 0 -211 -559c-64,-170 -112,-310 -143,-419 -26,130 -62,258 -109,386l-222 592z"/>
  <path class="fil1 str2" d="M33042 83000l12005 -60021"/>
  <path class="fil1 str1" d="M33042 83000l-8 2000"/>
  <path class="fil0" d="M32077 88000l776 -2020 288 0 827 2020 -305 0 -236 -612 -844 0 -222 612 -284 0zm583 -830l685 0 -211 -559c-64,-170 -112,-310 -143,-419 -26,130 -62,258 -109,386l-222 592z"/>
  <path class="fil0" d="M34069 88091l181 27c8,56 29,96 63,122 46,34 109,51 189,51 86,0 153,-17 200,-51 47,-35 78,-83 95,-145 9,-38 14,-117 13,-239 -81,96 -182,144 -304,144 -151,0 -268,-54 -350,-163 -83,-109 -124,-240 -124,-392 0,-105 19,-201 57,-290 38,-89 93,-157 165,-205 72,-48 156,-73 253,-73 130,0 237,53 321,158l0 -133 171 0 0 949c0,171 -17,292 -52,363 -35,72 -90,128 -165,169 -76,42 -169,63 -279,63 -131,0 -237,-30 -317,-89 -81,-59 -120,-147 -117,-266zm154 -659c0,144 29,249 86,315 57,66 129,99 215,99 85,0 157,-33 215,-99 58,-66 86,-169 86,-309 0,-135 -29,-236 -89,-304 -59,-68 -131,-102 -215,-102 -83,0 -153,33 -211,100 -58,67 -87,167 -87,300z"/>
  <path class="fil1 str4" d="M19228 67992l1772 0 0 -8436"/>
  <path class="fil0" d="M22274 65004l776 -2020 288 0 827 2020 -1891 0zm371 -238l1123 0 -437 -1151c-65,-173 -113,-312 -143,-419 -25,125 -61,253 -109,386l-434 1184z"/>
  <path class="fil0" d="M25842 63541l0 201 -398 0c122,114 183,291 183,532 0,262 -67,454 -201,578 -133,123 -295,185 -487,185 -198,0 -362,-64 -490,-193 -129,-128 -193,-319 -193,-572 0,-259 66,-452 200,-577 134,-125 295,-188 483,-188 69,0 147,12 234,34l669 0zm-907 172c-120,0 -221,46 -303,141 -80,93 -121,233 -121,420 0,185 40,325 119,419 80,93 183,140 309,140 134,0 240,-49 318,-146 79,-98 118,-237 118,-415 0,-162 -37,-296 -109,-402 -71,-104 -182,-157 -331,-157z"/>
  <path class="fil0" d="M19175 71119l776 -2020 288 0 827 2020 -1891 0zm371 -239l1123 0 -437 -1150c-65,-173 -113,-312 -143,-419 -25,125 -61,253 -109,386l-434 1183z"/>
  <path class="fil0" d="M22206 69821l-178 143c-113,-85 -219,-128 -317,-128 -81,0 -140,21 -177,65 -37,43 -56,90 -56,139 0,64 27,118 83,160 55,43 136,65 242,65 14,0 37,-1 69,-2l0 208c-29,-1 -51,-1 -66,-1 -131,0 -222,25 -273,76 -51,50 -77,107 -77,171 0,65 26,120 77,164 52,45 113,67 184,67 129,0 250,-60 363,-180l178 150c-147,156 -330,234 -548,234 -172,0 -300,-43 -385,-131 -84,-87 -127,-189 -127,-304 0,-167 81,-285 243,-354 -135,-77 -203,-182 -203,-316 0,-110 40,-207 120,-294 80,-87 203,-131 368,-131 190,0 349,67 480,199z"/>
  <path class="fil1 str5" d="M14000 83000c7000,-35038 17698,-88040 59037,-42045"/>
 </g>
</svg>
